<?xml version="1.0" encoding="UTF-8" standalone="no"?>
<svg
   width="1234"
   height="1234"
   viewBox="0 0 1234 1234"
   fill="none"
   version="1.1"
   id="svg38"
   sodipodi:docname="bytsolv.svg"
   inkscape:version="1.1.2 (0a00cf5339, 2022-02-04)"
   xmlns:inkscape="http://www.inkscape.org/namespaces/inkscape"
   xmlns:sodipodi="http://sodipodi.sourceforge.net/DTD/sodipodi-0.dtd"
   xmlns="http://www.w3.org/2000/svg"
   xmlns:svg="http://www.w3.org/2000/svg">
  <defs
     id="defs42" />
  <sodipodi:namedview
     id="namedview40"
     pagecolor="#ffffff"
     bordercolor="#666666"
     borderopacity="1.0"
     inkscape:pageshadow="2"
     inkscape:pageopacity="0.0"
     inkscape:pagecheckerboard="0"
     showgrid="false"
     inkscape:zoom="0.58184765"
     inkscape:cx="616.14067"
     inkscape:cy="616.14067"
     inkscape:window-width="1920"
     inkscape:window-height="951"
     inkscape:window-x="0"
     inkscape:window-y="32"
     inkscape:window-maximized="1"
     inkscape:current-layer="svg38" />
  <g
     id="g62"
     transform="matrix(1.0334839,0,0,1.0334839,-252.55484,-107.95413)">
    <path
       d="m 937.63338,823.30278 c -0.0617,-2.29892 -1.97528,-4.11237 -4.2742,-4.05065 -2.29893,0.0617 -4.11071,1.97695 -4.04899,4.27587 0.0617,2.29726 1.97528,4.11071 4.27421,4.04899 2.29893,-0.0617 4.11238,-1.97528 4.04898,-4.27421 z"
       fill="#000000"
       id="path2"
       style="stroke-width:1.66831" />
    <path
       d="m 931.02188,804.81293 -8.41328,8.08462 c -1.55486,1.4948 -1.60491,3.96557 -0.11011,5.5221 1.49481,1.55486 3.96557,1.60324 5.52043,0.10844 l 8.41495,-8.08462 c 1.55486,-1.49481 1.60491,-3.96557 0.11011,-5.52043 -1.49481,-1.55653 -3.96557,-1.60491 -5.5221,-0.11011 z"
       fill="#000000"
       id="path4"
       style="stroke-width:1.66831" />
    <path
       d="m 930.69155,786.10953 -33.61806,34.61905 c -1.55487,1.60158 -1.5165,4.1591 0.0834,5.71396 v 0 c 1.60158,1.55319 4.15909,1.51649 5.71395,-0.0851 l 33.61807,-34.61738 c 1.55486,-1.60157 1.51649,-4.15909 -0.0834,-5.71395 -1.60158,-1.55486 -4.15909,-1.51649 -5.71396,0.0834 z"
       fill="#000000"
       id="path6"
       style="stroke-width:1.66831" />
    <path
       d="m 985.05669,816.03564 h -11.59473 l -1.91856,5.54712 h -6.13103 L 975.881,792.42908 h 6.79835 l 10.46863,29.15368 h -6.17273 z m -1.58489,-4.67127 -4.21248,-12.17864 -4.21247,12.17864 z m 41.5042,-18.89358 v 4.71297 h -12.137 v 7.46568 h 9.3008 v 4.62955 h -9.3008 v 12.30377 h -5.8391 v -29.11197 z m 2.6376,17.47552 c 0,-2.33563 0.4587,-4.40767 1.3763,-6.21444 0.9459,-1.80678 2.2105,-3.19815 3.7954,-4.17077 1.6133,-0.97263 3.4067,-1.45977 5.3803,-1.45977 1.725,0 3.2265,0.34701 4.5044,1.04269 1.308,0.69569 2.3507,1.57155 3.1281,2.62759 v -3.29491 h 5.8808 v 23.10606 h -5.8808 v -3.37832 c -0.7507,1.0844 -1.7934,1.98862 -3.1281,2.711 -1.3063,0.69568 -2.8211,1.04269 -4.5461,1.04269 -1.9453,0 -3.7253,-0.50049 -5.3386,-1.50148 -1.5849,-1.00098 -2.8495,-2.4057 -3.7954,-4.21248 -0.9176,-1.83513 -1.3763,-3.93387 -1.3763,-6.29786 z m 18.1845,0.0834 c 0,-1.41806 -0.2769,-2.62759 -0.8341,-3.62857 -0.5556,-1.02935 -1.3063,-1.80678 -2.2523,-2.33563 -0.9442,-0.55555 -1.9602,-0.83416 -3.0446,-0.83416 -1.0844,0 -2.0854,0.2636 -3.003,0.79245 -0.9175,0.52885 -1.6683,1.30629 -2.2522,2.33563 -0.5555,1.00099 -0.8341,2.19716 -0.8341,3.58686 0,1.3897 0.2786,2.61424 0.8341,3.67028 0.5839,1.02935 1.3347,1.82179 2.2522,2.37734 0.946,0.55554 1.9469,0.83415 3.003,0.83415 1.0844,0 2.1004,-0.26359 3.0446,-0.79244 0.946,-0.55555 1.6967,-1.33465 2.2523,-2.33564 0.5572,-1.02934 0.8341,-2.25221 0.8341,-3.67027 z m 10.0833,-0.0834 c 0,-2.33563 0.4587,-4.40767 1.3763,-6.21444 0.9443,-1.80678 2.2105,-3.19815 3.7954,-4.17077 1.6116,-0.97263 3.405,-1.45977 5.3803,-1.45977 1.7234,0 3.2248,0.34701 4.5044,1.04269 1.3063,0.69569 2.349,1.57155 3.1281,2.62759 v -3.29491 h 5.8808 v 23.10606 h -5.8808 v -3.37832 c -0.7507,1.0844 -1.7934,1.98862 -3.1281,2.711 -1.3079,0.69568 -2.8227,1.04269 -4.5461,1.04269 -1.9469,0 -3.727,-0.50049 -5.3386,-1.50148 -1.5849,-1.00098 -2.8511,-2.4057 -3.7954,-4.21248 -0.9176,-1.83513 -1.3763,-3.93387 -1.3763,-6.29786 z m 18.1845,0.0834 c 0,-1.41806 -0.2786,-2.62759 -0.8341,-3.62857 -0.5573,-1.02935 -1.308,-1.80678 -2.2523,-2.33563 -0.9459,-0.55555 -1.9602,-0.83416 -3.0446,-0.83416 -1.0844,0 -2.0854,0.2636 -3.003,0.79245 -0.9175,0.52885 -1.6683,1.30629 -2.2522,2.33563 -0.5572,1.00099 -0.8341,2.19716 -0.8341,3.58686 0,1.3897 0.2769,2.61424 0.8341,3.67028 0.5839,1.02935 1.3347,1.82179 2.2522,2.37734 0.9443,0.55554 1.9453,0.83415 3.003,0.83415 1.0844,0 2.0987,-0.26359 3.0446,-0.79244 0.9443,-0.55555 1.695,-1.33465 2.2523,-2.33564 0.5555,-1.02934 0.8341,-2.25221 0.8341,-3.67027 z m 18.3814,-6.75665 v 11.17766 c 0,0.7791 0.1802,1.348 0.5422,1.71002 0.3887,0.33366 1.0294,0.50049 1.9186,0.50049 h 2.711 v 4.92151 h -3.6703 c -4.9215,0 -7.3823,-2.39069 -7.3823,-7.17372 v -11.13596 h -2.7527 v -4.79638 h 2.7527 v -5.71396 h 5.8808 v 5.71396 h 5.1718 v 4.79638 z m 15.21,-12.55401 v 30.86369 h -5.8391 v -30.86369 z m 4.2675,19.22724 c 0,-2.33563 0.4588,-4.40767 1.3764,-6.21444 0.9459,-1.80678 2.2105,-3.19815 3.7954,-4.17077 1.6132,-0.97263 3.4067,-1.45977 5.3803,-1.45977 1.725,0 3.2265,0.34701 4.5044,1.04269 1.3079,0.69569 2.3506,1.57155 3.1281,2.62759 v -3.29491 h 5.8808 v 23.10606 h -5.8808 v -3.37832 c -0.7508,1.0844 -1.7935,1.98862 -3.1281,2.711 -1.3063,0.69568 -2.8211,1.04269 -4.5461,1.04269 -1.9453,0 -3.7254,-0.50049 -5.3386,-1.50148 -1.5849,-1.00098 -2.8495,-2.4057 -3.7954,-4.21248 -0.9176,-1.83513 -1.3764,-3.93387 -1.3764,-6.29786 z m 18.1846,0.0834 c 0,-1.41806 -0.277,-2.62759 -0.8342,-3.62857 -0.5555,-1.02935 -1.3063,-1.80678 -2.2522,-2.33563 -0.9443,-0.55555 -1.9603,-0.83416 -3.0447,-0.83416 -1.0844,0 -2.0853,0.2636 -3.0029,0.79245 -0.9176,0.52885 -1.6683,1.30629 -2.2522,2.33563 -0.5556,1.00099 -0.8342,2.19716 -0.8342,3.58686 0,1.3897 0.2786,2.61424 0.8342,3.67028 0.5839,1.02935 1.3346,1.82179 2.2522,2.37734 0.9459,0.55554 1.9469,0.83415 3.0029,0.83415 1.0844,0 2.1004,-0.26359 3.0447,-0.79244 0.9459,-0.55555 1.6967,-1.33465 2.2522,-2.33564 0.5572,-1.02934 0.8342,-2.25221 0.8342,-3.67027 z m 17.4238,-8.17471 c 0.7507,-1.11276 1.7801,-2.01531 3.0863,-2.711 1.3347,-0.69568 2.8495,-1.04269 4.5462,-1.04269 1.9736,0 3.7537,0.48714 5.3386,1.45977 1.6132,0.97262 2.8778,2.36399 3.7954,4.17077 0.9459,1.78008 1.418,3.85045 1.418,6.21444 0,2.36399 -0.4721,4.46273 -1.418,6.29786 -0.9176,1.80678 -2.1822,3.2115 -3.7954,4.21248 -1.5849,1.00099 -3.365,1.50148 -5.3386,1.50148 -1.7234,0 -3.2399,-0.33366 -4.5462,-1.00099 -1.2796,-0.69568 -2.3072,-1.58489 -3.0863,-2.66929 v 3.29491 h -5.8391 v -30.86369 h 5.8391 z m 12.2203,8.09129 c 0,-1.3897 -0.2919,-2.58587 -0.8758,-3.58686 -0.5556,-1.02934 -1.3063,-1.80678 -2.2523,-2.33563 -0.9175,-0.52885 -1.9185,-0.79245 -3.0029,-0.79245 -1.056,0 -2.057,0.27861 -3.003,0.83416 -0.9175,0.52885 -1.6683,1.30628 -2.2522,2.33563 -0.5555,1.02934 -0.8341,2.23887 -0.8341,3.62857 0,1.3897 0.2786,2.59922 0.8341,3.62857 0.5839,1.02934 1.3347,1.82179 2.2522,2.37734 0.946,0.52885 1.947,0.79244 3.003,0.79244 1.0844,0 2.0854,-0.27861 3.0029,-0.83415 0.946,-0.55555 1.6967,-1.34799 2.2523,-2.37734 0.5839,-1.02935 0.8758,-2.25222 0.8758,-3.67028 z m 18.7268,-2.96124 c 0,-2.86449 0.6406,-5.422 1.9185,-7.67422 1.308,-2.28058 3.0731,-4.04564 5.2969,-5.29688 2.2522,-1.27959 4.7697,-1.91855 7.5491,-1.91855 3.2532,0 6.1043,0.83415 8.5501,2.50246 2.4474,1.66831 4.1574,3.97558 5.13,6.92348 h -6.7149 c -0.6673,-1.3897 -1.6116,-2.43239 -2.8361,-3.12808 -1.1945,-0.69568 -2.5859,-1.04269 -4.1708,-1.04269 -1.695,0 -3.2115,0.40373 -4.5461,1.20952 -1.3063,0.7791 -2.3357,1.8902 -3.0864,3.33662 -0.7224,1.44642 -1.0844,3.14142 -1.0844,5.08834 0,1.91855 0.362,3.61522 1.0844,5.08833 0.7507,1.44643 1.7801,2.57254 3.0864,3.37833 1.3346,0.7791 2.8511,1.16781 4.5461,1.16781 1.5849,0 2.9763,-0.347 4.1708,-1.04269 1.2245,-0.72238 2.1688,-1.78008 2.8361,-3.16978 h 6.7149 c -0.9726,2.97459 -2.6826,5.29687 -5.13,6.96518 -2.4191,1.63995 -5.2685,2.46075 -8.5501,2.46075 -2.7794,0 -5.2969,-0.62561 -7.5491,-1.87684 -2.2238,-1.27959 -3.9889,-3.04466 -5.2969,-5.29688 -1.2779,-2.25221 -1.9185,-4.80973 -1.9185,-7.67421 z m 43.693,14.97306 c -2.2256,0 -4.2275,-0.48715 -6.006,-1.45977 -1.78,-1.00099 -3.1848,-2.4057 -4.2124,-4.21248 -1.001,-1.80678 -1.5015,-3.89216 -1.5015,-6.25615 0,-2.36399 0.5138,-4.44938 1.5432,-6.25616 1.056,-1.80677 2.4874,-3.19814 4.2959,-4.17076 1.8067,-1.00099 3.8221,-1.50148 6.0476,-1.50148 2.2238,0 4.2392,0.50049 6.0476,1.50148 1.8068,0.97262 3.2248,2.36399 4.2542,4.17076 1.056,1.80678 1.5849,3.89217 1.5849,6.25616 0,2.36399 -0.5422,4.44937 -1.6266,6.25615 -1.0577,1.80678 -2.5025,3.21149 -4.3376,4.21248 -1.8085,0.97262 -3.8371,1.45977 -6.0893,1.45977 z m 0,-5.08834 c 1.056,0 2.0436,-0.25025 2.9612,-0.75074 0.9443,-0.52885 1.695,-1.30628 2.2522,-2.33563 0.5556,-1.02935 0.8342,-2.28058 0.8342,-3.75369 0,-2.19716 -0.5839,-3.87882 -1.7518,-5.04663 -1.1411,-1.19618 -2.5441,-1.79343 -4.2124,-1.79343 -1.6683,0 -3.0731,0.59725 -4.2125,1.79343 -1.1128,1.16781 -1.6683,2.84947 -1.6683,5.04663 0,2.19716 0.5422,3.89216 1.6266,5.08834 1.1111,1.16781 2.5024,1.75172 4.1708,1.75172 z m 45.0309,-18.72675 c 2.8361,0 5.1167,0.87586 6.8401,2.62758 1.7517,1.72336 2.6276,4.14241 2.6276,7.25714 v 13.555 h -5.8391 V 808.8202 c 0,-1.80677 -0.4588,-3.18313 -1.3764,-4.12906 -0.9175,-0.97262 -2.1688,-1.45977 -3.7537,-1.45977 -1.5849,0 -2.8494,0.48715 -3.7954,1.45977 -0.9175,0.94593 -1.3763,2.32229 -1.3763,4.12906 v 12.76256 h -5.8391 V 808.8202 c 0,-1.80677 -0.4588,-3.18313 -1.3763,-4.12906 -0.9176,-0.97262 -2.1688,-1.45977 -3.7537,-1.45977 -1.6133,0 -2.8912,0.48715 -3.8371,1.45977 -0.9176,0.94593 -1.3764,2.32229 -1.3764,4.12906 v 12.76256 h -5.8391 V 798.4767 h 5.8391 v 2.79441 c 0.7507,-0.97262 1.71,-1.73837 2.8778,-2.29392 1.1962,-0.55555 2.5025,-0.83415 3.9206,-0.83415 1.8067,0 3.42,0.38871 4.838,1.16781 1.4181,0.75074 2.5159,1.83514 3.295,3.2532 0.7507,-1.33464 1.8351,-2.4057 3.2532,-3.21149 1.4464,-0.80579 3.0029,-1.20952 4.6712,-1.20952 z m 20.8472,3.67027 c 0.7507,-1.05604 1.7801,-1.9319 3.0864,-2.62758 1.3346,-0.72238 2.8511,-1.0844 4.5461,-1.0844 1.9753,0 3.7537,0.48714 5.3386,1.45977 1.6132,0.97262 2.8778,2.36399 3.7954,4.17077 0.9459,1.78008 1.418,3.85045 1.418,6.21444 0,2.36399 -0.4721,4.46273 -1.418,6.29786 -0.9176,1.80678 -2.1822,3.2115 -3.7954,4.21248 -1.5849,1.00099 -3.3633,1.50148 -5.3386,1.50148 -1.695,0 -3.1965,-0.34701 -4.5044,-1.04269 -1.278,-0.69569 -2.3207,-1.57155 -3.1281,-2.62759 v 14.30574 h -5.8391 V 798.4767 h 5.8391 z m 12.2203,8.133 c 0,-1.3897 -0.2919,-2.58587 -0.8758,-3.58686 -0.5556,-1.02934 -1.3063,-1.80678 -2.2522,-2.33563 -0.9176,-0.52885 -1.9186,-0.79245 -3.003,-0.79245 -1.056,0 -2.057,0.27861 -3.0029,0.83416 -0.9176,0.52885 -1.6684,1.30628 -2.2523,2.33563 -0.5555,1.02934 -0.8341,2.23887 -0.8341,3.62857 0,1.3897 0.2786,2.59922 0.8341,3.62857 0.5839,1.02934 1.3347,1.82179 2.2523,2.37734 0.9459,0.52885 1.9469,0.79244 3.0029,0.79244 1.0844,0 2.0854,-0.27861 3.003,-0.83415 0.9459,-0.55555 1.6966,-1.34799 2.2522,-2.37734 0.5839,-1.02935 0.8758,-2.25222 0.8758,-3.67028 z m 8.7069,0 c 0,-2.33563 0.4588,-4.40767 1.3764,-6.21444 0.9443,-1.80678 2.2105,-3.19815 3.7954,-4.17077 1.6116,-0.97263 3.405,-1.45977 5.3803,-1.45977 1.7233,0 3.2248,0.34701 4.5044,1.04269 1.3063,0.69569 2.349,1.57155 3.1281,2.62759 v -3.29491 h 5.8808 v 23.10606 h -5.8808 v -3.37832 c -0.7507,1.0844 -1.7934,1.98862 -3.1281,2.711 -1.3079,0.69568 -2.8228,1.04269 -4.5461,1.04269 -1.9469,0 -3.727,-0.50049 -5.3386,-1.50148 -1.5849,-1.00098 -2.8511,-2.4057 -3.7954,-4.21248 -0.9176,-1.83513 -1.3764,-3.93387 -1.3764,-6.29786 z m 18.1846,0.0834 c 0,-1.41806 -0.2786,-2.62759 -0.8342,-3.62857 -0.5572,-1.02935 -1.3079,-1.80678 -2.2522,-2.33563 -0.9459,-0.55555 -1.9602,-0.83416 -3.0446,-0.83416 -1.0844,0 -2.0854,0.2636 -3.003,0.79245 -0.9176,0.52885 -1.6683,1.30629 -2.2522,2.33563 -0.5572,1.00099 -0.8342,2.19716 -0.8342,3.58686 0,1.3897 0.277,2.61424 0.8342,3.67028 0.5839,1.02935 1.3346,1.82179 2.2522,2.37734 0.9443,0.55554 1.9453,0.83415 3.003,0.83415 1.0844,0 2.0987,-0.26359 3.0446,-0.79244 0.9443,-0.55555 1.695,-1.33465 2.2522,-2.33564 0.5556,-1.02934 0.8342,-2.25221 0.8342,-3.67027 z m 24.3873,-11.88669 c 2.7527,0 4.9766,0.87586 6.6732,2.62758 1.6967,1.72336 2.5442,4.14241 2.5442,7.25714 v 13.555 h -5.8391 v -12.7625 c 0,-1.83513 -0.4588,-3.23985 -1.3763,-4.21247 -0.9176,-1.00099 -2.1688,-1.50148 -3.7537,-1.50148 -1.6133,0 -2.8912,0.50049 -3.8371,1.50148 -0.9176,0.97262 -1.3764,2.37734 -1.3764,4.21247 v 12.76256 h -5.8391 V 798.4767 h 5.8391 v 2.87783 c 0.7791,-1.00099 1.7651,-1.78009 2.9613,-2.33563 1.2228,-0.58391 2.5575,-0.87586 4.0039,-0.87586 z m 36.8746,0.33366 -14.3057,34.03347 h -6.2145 l 5.005,-11.51132 -9.2592,-22.52215 h 6.5482 l 5.9642,16.14087 6.0476,-16.14087 z"
       fill="#000000"
       id="path8"
       style="stroke-width:1.66831" />
    <rect
       x="297.83908"
       y="573.83905"
       width="155.1526"
       height="155.1526"
       stroke="#000000"
       stroke-width="7"
       id="rect10" />
    <rect
       x="452.9917"
       y="573.83905"
       width="155.1526"
       height="155.1526"
       stroke="#000000"
       stroke-width="7"
       id="rect12" />
    <rect
       x="608.14429"
       y="573.83905"
       width="155.1526"
       height="155.1526"
       stroke="#000000"
       stroke-width="7"
       id="rect14" />
    <rect
       x="763.29688"
       y="573.83905"
       width="155.1526"
       height="155.1526"
       stroke="#000000"
       stroke-width="7"
       id="rect16" />
    <rect
       x="918.44952"
       y="573.83905"
       width="155.1526"
       height="155.1526"
       stroke="#000000"
       stroke-width="7"
       id="rect18" />
    <rect
       x="1073.6022"
       y="573.83905"
       width="155.1526"
       height="155.1526"
       stroke="#000000"
       stroke-width="7"
       id="rect20" />
    <rect
       x="1228.7548"
       y="573.83905"
       width="155.1526"
       height="155.1526"
       stroke="#000000"
       stroke-width="7"
       id="rect22" />
    <path
       d="m 1343.274,616.50104 -26.5861,74.95372 h -22.8492 l -26.5861,-74.95372 h 19.4324 l 18.5783,56.58899 18.6851,-56.58899 z"
       fill="#000000"
       id="path24"
       style="stroke-width:1.66831" />
    <path
       d="m 392.37873,653.01696 c 4.34261,0.92591 7.82937,3.09638 10.46363,6.51307 2.63426,3.34496 3.95055,7.18874 3.95055,11.53134 0,6.2645 -2.20717,11.24606 -6.61984,14.94804 -4.34261,3.63024 -10.42859,5.44535 -18.25796,5.44535 h -34.91434 v -74.95372 h 33.73985 c 7.61582,0 13.56,1.74338 17.83087,5.23181 4.34261,3.48843 6.51307,8.22142 6.51307,14.20064 0,4.41267 -1.17448,8.07961 -3.52346,10.99748 -2.27724,2.91787 -5.33859,4.94653 -9.18237,6.08599 z m -27.12001,-6.19276 h 11.95843 c 2.98961,0 5.26685,-0.64063 6.83339,-1.92189 1.63661,-1.353 2.45575,-3.30992 2.45575,-5.87244 0,-2.56253 -0.81914,-4.51945 -2.45575,-5.87245 -1.56654,-1.353 -3.84378,-2.02866 -6.83339,-2.02866 h -11.95843 z m 13.45324,29.89607 c 3.06134,0 5.41032,-0.67566 7.04693,-2.02866 1.70835,-1.42307 2.56252,-3.45173 2.56252,-6.08599 0,-2.63426 -0.88921,-4.69795 -2.66929,-6.19276 -1.70835,-1.4948 -4.09236,-2.2422 -7.15371,-2.2422 h -13.23969 v 16.54961 z"
       fill="#000000"
       id="path26"
       style="stroke-width:1.66831" />
    <path
       d="m 566.42993,616.50104 -25.94552,50.18269 v 24.77103 h -18.25796 v -24.77103 l -25.94552,-50.18269 h 20.71371 l 14.52095,31.39088 14.41418,-31.39088 z"
       fill="#000000"
       id="path28"
       style="stroke-width:1.66831" />
    <path
       d="m 714.5623,616.50104 v 14.62772 h -19.85953 v 60.326 h -18.25796 v -60.326 h -19.85954 v -14.62772 z"
       fill="#000000"
       id="path30"
       style="stroke-width:1.66831" />
    <path
       d="m 846.25183,692.20217 c -5.48039,0 -10.39189,-0.88921 -14.73449,-2.6693 -4.34261,-1.78008 -7.82937,-4.41267 -10.46363,-7.9011 -2.56252,-3.48843 -3.91552,-7.68756 -4.05732,-12.59906 h 19.43245 c 0.28528,2.77606 1.24622,4.9115 2.88283,6.4063 1.63661,1.42307 3.77204,2.13543 6.4063,2.13543 2.70433,0 4.83976,-0.60559 6.4063,-1.81511 1.56654,-1.28126 2.34898,-3.02465 2.34898,-5.23182 0,-1.85015 -0.64063,-3.38166 -1.92189,-4.59118 -1.20952,-1.20952 -2.74103,-2.20717 -4.59118,-2.98961 -1.78009,-0.78243 -4.34261,-1.67331 -7.68756,-2.66929 -4.83976,-1.4948 -8.79032,-2.98961 -11.85166,-4.48441 -3.06135,-1.4948 -5.69394,-3.70197 -7.90111,-6.61984 -2.20717,-2.91787 -3.30992,-6.72662 -3.30992,-11.42458 0,-6.97519 2.52749,-12.42055 7.58079,-16.33606 5.05331,-3.98559 11.63812,-5.97922 19.75276,-5.97922 8.25646,0 14.91301,1.99363 19.96631,5.97922 5.0533,3.91551 7.7593,9.39591 8.11465,16.44284 h -19.75276 c -0.14181,-2.42072 -1.03269,-4.30591 -2.6693,-5.6589 -1.63661,-1.42307 -3.73701,-2.13544 -6.29953,-2.13544 -2.20717,0 -3.98558,0.6056 -5.33858,1.81512 -1.353,1.13946 -2.02866,2.8111 -2.02866,5.01827 0,2.42072 1.13945,4.3059 3.41669,5.6589 2.27724,1.353 5.83741,2.8111 10.67717,4.37764 4.83976,1.63661 8.75528,3.20315 11.74489,4.69795 3.06134,1.49481 5.69393,3.66528 7.9011,6.51308 2.20717,2.8478 3.30992,6.51307 3.30992,10.99748 0,4.27087 -1.10275,8.14968 -3.30992,11.63812 -2.13543,3.48843 -5.26685,6.26449 -9.39591,8.32819 -4.12906,2.06369 -9.00385,3.09638 -14.62772,3.09638 z"
       fill="#000000"
       id="path32"
       style="stroke-width:1.66831" />
    <path
       d="m 991.38125,692.20217 c -7.04693,0 -13.52497,-1.63661 -19.43245,-4.9115 -5.83741,-3.27489 -10.49866,-7.82937 -13.98709,-13.66678 -3.4167,-5.90748 -5.12504,-12.52732 -5.12504,-19.85953 0,-7.33221 1.70834,-13.91536 5.12504,-19.75276 3.48843,-5.83741 8.14968,-10.39189 13.98709,-13.66678 5.90748,-3.27489 12.38552,-4.9115 19.43245,-4.9115 7.04693,0 13.48825,1.63661 19.32565,4.9115 5.9075,3.27489 10.5354,7.82937 13.8803,13.66678 3.4167,5.8374 5.1251,12.42055 5.1251,19.75276 0,7.33221 -1.7084,13.95205 -5.1251,19.85953 -3.4167,5.83741 -8.0429,10.39189 -13.8803,13.66678 -5.8374,3.27489 -12.27872,4.9115 -19.32565,4.9115 z m 0,-16.65639 c 5.97921,0 10.74895,-1.99363 14.30745,-5.97921 3.6302,-3.98559 5.4453,-9.2541 5.4453,-15.80221 0,-6.61985 -1.8151,-11.88669 -5.4453,-15.80221 -3.5585,-3.98559 -8.32824,-5.97922 -14.30745,-5.97922 -6.05095,0 -10.89071,1.95693 -14.52095,5.87245 -3.5585,3.91551 -5.33859,9.2174 -5.33859,15.90898 0,6.61984 1.78009,11.92339 5.33859,15.90898 3.63024,3.91552 8.47,5.87244 14.52095,5.87244 z"
       fill="#000000"
       id="path34"
       style="stroke-width:1.66831" />
    <path
       d="m 1149.3633,677.3609 h 23.9169 v 14.09386 h -42.1749 v -74.95372 h 18.258 z"
       fill="#000000"
       id="path36"
       style="stroke-width:1.66831" />
  </g>
</svg>
